<svg xmlns="http://www.w3.org/2000/svg" xmlns:xlink="http://www.w3.org/1999/xlink" width="500" zoomAndPan="magnify" viewBox="0 0 375 374.999991" height="500" preserveAspectRatio="xMidYMid meet" version="1.0"><defs><g/><clipPath id="94ecb20f97"><path d="M 49 7.710938 L 332 7.710938 L 332 279 L 49 279 Z M 49 7.710938 " clip-rule="nonzero"/></clipPath></defs><g clip-path="url(#94ecb20f97)"><path fill="#a69e96" d="M 238.9375 7.980469 C 238.34375 7.988281 237.734375 8.015625 237.132812 8.0625 C 213.070312 12.207031 199.84375 37.601562 197.925781 59.992188 C 195.125 80.308594 204.09375 106.421875 226.449219 110.976562 C 229.691406 111.589844 233.058594 111.308594 236.230469 110.453125 C 263.144531 101.445312 275.191406 69.628906 271.300781 43.273438 C 270.167969 26.253906 257.3125 7.746094 238.9375 7.980469 Z M 136.929688 9.070312 C 121.96875 9.4375 110.316406 24.578125 107.945312 38.8125 C 102.945312 67.015625 115.800781 102.058594 145.242188 110.976562 C 148 111.578125 150.851562 111.636719 153.636719 111.207031 C 173.535156 107.898438 181.964844 85.632812 181.132812 67.660156 C 180.53125 43.949219 168.191406 16.535156 143.519531 9.867188 C 141.265625 9.269531 139.066406 9.019531 136.929688 9.070312 Z M 304.125 89.171875 C 278.246094 90.714844 260.5 116.488281 257.972656 140.550781 C 254.546875 157.910156 263.816406 181.125 283.660156 182.507812 C 311.328125 182.167969 330.207031 152.660156 330.988281 127.273438 C 332.738281 110.480469 322.828125 90.097656 304.125 89.171875 Z M 77.597656 94.886719 C 66.585938 94.792969 55.757812 101.375 52.160156 112.546875 C 42.558594 142.429688 61.835938 180.273438 93.550781 186.554688 C 106.785156 188.816406 118.414062 178.671875 121.695312 166.464844 C 128.648438 140.363281 114.363281 110.050781 90.191406 98.203125 C 86.253906 95.996094 81.90625 94.929688 77.597656 94.894531 Z M 193.621094 148.472656 C 172.035156 148.515625 150.113281 159.449219 136.132812 175.722656 C 121.039062 194.691406 108.671875 216.761719 103.832031 240.699219 C 97.957031 257.929688 111.277344 277.761719 129.730469 277.878906 C 151.9375 278.496094 171.019531 263.28125 193.097656 262.148438 C 211.828125 259.300781 228.601562 269.023438 245.441406 275.386719 C 259.78125 281.507812 279.59375 279.164062 286.914062 263.761719 C 292.671875 248.066406 284.199219 231.328125 277.175781 217.386719 C 262.855469 194.757812 247.515625 170.976562 224.035156 156.851562 C 214.621094 151.027344 204.164062 148.449219 193.621094 148.472656 Z M 193.621094 148.472656 " fill-opacity="1" fill-rule="nonzero"/></g><g fill="#a69e96" fill-opacity="1"><g transform="translate(73.96875, 346.063628)"><g><path d="M 30.671875 -11.890625 C 30.671875 -8.023438 29.28125 -4.976562 26.5 -2.75 C 23.71875 -0.519531 19.847656 0.59375 14.890625 0.59375 C 10.316406 0.59375 6.269531 -0.269531 2.75 -2 L 2.75 -10.4375 C 5.644531 -9.144531 8.09375 -8.234375 10.09375 -7.703125 C 12.09375 -7.179688 13.925781 -6.921875 15.59375 -6.921875 C 17.582031 -6.921875 19.109375 -7.300781 20.171875 -8.0625 C 21.234375 -8.820312 21.765625 -9.953125 21.765625 -11.453125 C 21.765625 -12.296875 21.53125 -13.039062 21.0625 -13.6875 C 20.59375 -14.34375 19.90625 -14.972656 19 -15.578125 C 18.09375 -16.191406 16.242188 -17.160156 13.453125 -18.484375 C 10.828125 -19.710938 8.859375 -20.894531 7.546875 -22.03125 C 6.242188 -23.164062 5.203125 -24.484375 4.421875 -25.984375 C 3.640625 -27.492188 3.25 -29.253906 3.25 -31.265625 C 3.25 -35.046875 4.53125 -38.019531 7.09375 -40.1875 C 9.664062 -42.363281 13.21875 -43.453125 17.75 -43.453125 C 19.976562 -43.453125 22.101562 -43.1875 24.125 -42.65625 C 26.144531 -42.125 28.257812 -41.382812 30.46875 -40.4375 L 27.546875 -33.375 C 25.253906 -34.3125 23.359375 -34.960938 21.859375 -35.328125 C 20.367188 -35.703125 18.90625 -35.890625 17.46875 -35.890625 C 15.75 -35.890625 14.425781 -35.488281 13.5 -34.6875 C 12.582031 -33.882812 12.125 -32.835938 12.125 -31.546875 C 12.125 -30.753906 12.3125 -30.054688 12.6875 -29.453125 C 13.0625 -28.859375 13.648438 -28.28125 14.453125 -27.71875 C 15.265625 -27.164062 17.1875 -26.171875 20.21875 -24.734375 C 24.21875 -22.816406 26.957031 -20.894531 28.4375 -18.96875 C 29.925781 -17.039062 30.671875 -14.679688 30.671875 -11.890625 Z M 30.671875 -11.890625 "/></g></g></g><g fill="#a69e96" fill-opacity="1"><g transform="translate(107.009169, 346.063628)"><g><path d="M 11.8125 -16.4375 C 11.8125 -13.195312 12.34375 -10.742188 13.40625 -9.078125 C 14.46875 -7.421875 16.203125 -6.59375 18.609375 -6.59375 C 20.984375 -6.59375 22.691406 -7.414062 23.734375 -9.0625 C 24.785156 -10.71875 25.3125 -13.175781 25.3125 -16.4375 C 25.3125 -19.675781 24.785156 -22.101562 23.734375 -23.71875 C 22.679688 -25.34375 20.953125 -26.15625 18.546875 -26.15625 C 16.160156 -26.15625 14.441406 -25.347656 13.390625 -23.734375 C 12.335938 -22.128906 11.8125 -19.695312 11.8125 -16.4375 Z M 34.453125 -16.4375 C 34.453125 -11.101562 33.046875 -6.929688 30.234375 -3.921875 C 27.421875 -0.910156 23.503906 0.59375 18.484375 0.59375 C 15.335938 0.59375 12.5625 -0.09375 10.15625 -1.46875 C 7.757812 -2.851562 5.914062 -4.832031 4.625 -7.40625 C 3.34375 -9.988281 2.703125 -13 2.703125 -16.4375 C 2.703125 -21.789062 4.097656 -25.953125 6.890625 -28.921875 C 9.679688 -31.890625 13.601562 -33.375 18.65625 -33.375 C 21.800781 -33.375 24.578125 -32.6875 26.984375 -31.3125 C 29.390625 -29.945312 31.234375 -27.984375 32.515625 -25.421875 C 33.804688 -22.867188 34.453125 -19.875 34.453125 -16.4375 Z M 34.453125 -16.4375 "/></g></g></g><g fill="#a69e96" fill-opacity="1"><g transform="translate(144.150348, 346.063628)"><g><path d="M 27.890625 0 L 26.6875 -4.1875 L 26.21875 -4.1875 C 25.257812 -2.664062 23.898438 -1.488281 22.140625 -0.65625 C 20.390625 0.175781 18.390625 0.59375 16.140625 0.59375 C 12.296875 0.59375 9.394531 -0.4375 7.4375 -2.5 C 5.488281 -4.5625 4.515625 -7.523438 4.515625 -11.390625 L 4.515625 -32.75 L 13.453125 -32.75 L 13.453125 -13.625 C 13.453125 -11.257812 13.867188 -9.484375 14.703125 -8.296875 C 15.546875 -7.117188 16.882812 -6.53125 18.71875 -6.53125 C 21.21875 -6.53125 23.023438 -7.363281 24.140625 -9.03125 C 25.253906 -10.707031 25.8125 -13.476562 25.8125 -17.34375 L 25.8125 -32.75 L 34.75 -32.75 L 34.75 0 Z M 27.890625 0 "/></g></g></g><g fill="#a69e96" fill-opacity="1"><g transform="translate(183.576238, 346.063628)"><g><path d="M 13.625 0 L 4.6875 0 L 4.6875 -45.59375 L 13.625 -45.59375 Z M 13.625 0 "/></g></g></g><g fill="#a69e96" fill-opacity="1"><g transform="translate(201.883213, 346.063628)"><g><path d="M 14.46875 -22.671875 L 17.46875 -22.671875 C 20.257812 -22.671875 22.347656 -23.222656 23.734375 -24.328125 C 25.117188 -25.429688 25.8125 -27.039062 25.8125 -29.15625 C 25.8125 -31.28125 25.226562 -32.847656 24.0625 -33.859375 C 22.90625 -34.878906 21.085938 -35.390625 18.609375 -35.390625 L 14.46875 -35.390625 Z M 34.984375 -29.46875 C 34.984375 -24.863281 33.539062 -21.335938 30.65625 -18.890625 C 27.78125 -16.453125 23.6875 -15.234375 18.375 -15.234375 L 14.46875 -15.234375 L 14.46875 0 L 5.390625 0 L 5.390625 -42.828125 L 19.078125 -42.828125 C 24.265625 -42.828125 28.210938 -41.707031 30.921875 -39.46875 C 33.628906 -37.238281 34.984375 -33.90625 34.984375 -29.46875 Z M 34.984375 -29.46875 "/></g></g></g><g fill="#a69e96" fill-opacity="1"><g transform="translate(239.551634, 346.063628)"><g><path d="M 18.25 -27.015625 C 16.351562 -27.015625 14.867188 -26.410156 13.796875 -25.203125 C 12.722656 -24.003906 12.109375 -22.300781 11.953125 -20.09375 L 24.5 -20.09375 C 24.457031 -22.300781 23.878906 -24.003906 22.765625 -25.203125 C 21.648438 -26.410156 20.144531 -27.015625 18.25 -27.015625 Z M 19.515625 0.59375 C 14.242188 0.59375 10.125 -0.859375 7.15625 -3.765625 C 4.1875 -6.679688 2.703125 -10.804688 2.703125 -16.140625 C 2.703125 -21.628906 4.070312 -25.875 6.8125 -28.875 C 9.550781 -31.875 13.34375 -33.375 18.1875 -33.375 C 22.820312 -33.375 26.425781 -32.050781 29 -29.40625 C 31.582031 -26.769531 32.875 -23.128906 32.875 -18.484375 L 32.875 -14.15625 L 11.75 -14.15625 C 11.84375 -11.613281 12.59375 -9.628906 14 -8.203125 C 15.40625 -6.773438 17.378906 -6.0625 19.921875 -6.0625 C 21.890625 -6.0625 23.753906 -6.265625 25.515625 -6.671875 C 27.273438 -7.085938 29.113281 -7.742188 31.03125 -8.640625 L 31.03125 -1.734375 C 29.46875 -0.953125 27.796875 -0.367188 26.015625 0.015625 C 24.234375 0.398438 22.066406 0.59375 19.515625 0.59375 Z M 19.515625 0.59375 "/></g></g></g><g fill="#a69e96" fill-opacity="1"><g transform="translate(274.993915, 346.063628)"><g><path d="M 18.484375 -6.53125 C 20.046875 -6.53125 21.921875 -6.875 24.109375 -7.5625 L 24.109375 -0.90625 C 21.878906 0.09375 19.144531 0.59375 15.90625 0.59375 C 12.332031 0.59375 9.726562 -0.304688 8.09375 -2.109375 C 6.46875 -3.921875 5.65625 -6.632812 5.65625 -10.25 L 5.65625 -26.046875 L 1.375 -26.046875 L 1.375 -29.828125 L 6.296875 -32.8125 L 8.875 -39.734375 L 14.59375 -39.734375 L 14.59375 -32.75 L 23.765625 -32.75 L 23.765625 -26.046875 L 14.59375 -26.046875 L 14.59375 -10.25 C 14.59375 -8.976562 14.945312 -8.039062 15.65625 -7.4375 C 16.375 -6.832031 17.316406 -6.53125 18.484375 -6.53125 Z M 18.484375 -6.53125 "/></g></g></g></svg>